PathFileType	4	(X/Y/Z)	 Patient4_AnkleIso.trc
DataRate	CameraRate	NumFrames	NumMarkers	Units	OrigDataRate	OrigDataStartFrame	OrigNumFrames
100	100	4	33	mm	100	588	1567
Frame#	Time	Sacral			L.Shoulder			Chest			R.Shoulder			Neck			R.ASIS			L.ASIS			R.Thigh.Superior			R.Thigh.Lateral			R.Thigh.Inferior			R.Patella			L.Thigh.Superior			L.Thigh.Lateral			L.Thigh.Inferior			L.Patella			L.Shank.Superior			L.Shank.Lateral			L.Shank.Inferior			R.Shank.Superior			R.Shank.Lateral			R.Shank.Inferior			R.Heel			R.Midfoot.Superior			R.Midfoot.Lateral			R.Toe			L.Heel			L.Midfoot.Lateral			L.Midfoot.Superior			L.Toe			L.Elbow			L.Wrist			R.Elbow			R.Wrist			
		X1	Y1	Z1	X2	Y2	Z2	X3	Y3	Z3	X4	Y4	Z4	X5	Y5	Z5	X6	Y6	Z6	X7	Y7	Z7	X8	Y8	Z8	X9	Y9	Z9	X10	Y10	Z10	X11	Y11	Z11	X12	Y12	Z12	X13	Y13	Z13	X14	Y14	Z14	X15	Y15	Z15	X16	Y16	Z16	X17	Y17	Z17	X18	Y18	Z18	X19	Y19	Z19	X20	Y20	Z20	X21	Y21	Z21	X22	Y22	Z22	X23	Y23	Z23	X24	Y24	Z24	X25	Y25	Z25	X26	Y26	Z26	X27	Y27	Z27	X28	Y28	Z28	X29	Y29	Z29	X30	Y30	Z30	X31	Y31	Z31	X32	Y32	Z32	X33	Y33	Z33	

588	5.8700	677.570010	985.647400	660.528140	500.576080	1442.659400	817.939450	419.893490	1358.340100	657.378300	515.782780	1446.941200	498.488340	512.434630	1483.514200	684.304260	451.779050	933.305110	528.286620	454.884220	960.305110	800.959900	352.140110	789.341670	561.273130	380.334010	658.370610	499.684020	286.169070	647.934200	575.818420	244.210600	571.966860	557.164790	420.353420	738.565670	770.046260	521.527400	630.783810	816.774600	447.865300	543.096680	754.283390	453.725010	477.279390	738.384340	477.281520	406.926670	737.331420	572.698730	288.903200	765.472840	513.847780	184.465450	691.652280	230.108350	480.643220	559.492310	253.363310	350.739170	514.361820	160.918200	296.602260	569.485900	186.704180	90.490810	632.750730	73.122710	203.824130	543.413820	135.387710	108.331020	535.191530	-40.586910	201.759410	476.875120	629.330260	31.794750	616.936160	570.228450	28.742100	710.167420	484.668150	88.795150	700.043820	361.563510	38.488380	746.368650	531.278560	1162.672900	1025.639000	288.943210	1215.802200	1115.012500	662.257750	1245.175700	269.469670	640.936520	1123.018700	44.533590	
589	5.8800	677.883120	985.561040	660.362430	500.680080	1442.727300	817.577210	419.823730	1358.126100	657.565120	515.442380	1446.619300	498.116670	512.120730	1483.446800	683.879390	452.239470	933.662840	528.940610	455.587890	960.260130	801.450380	351.711910	790.017700	561.589660	379.131130	659.193600	499.384890	284.889340	648.743040	575.570190	242.272610	572.664550	556.844540	420.985780	738.653990	770.558170	522.088070	630.865300	817.065370	448.193970	543.184450	754.676150	453.996190	477.425960	738.949650	477.069310	406.966030	737.436100	573.024900	288.893340	765.703060	514.004210	184.563600	691.774600	228.822740	481.430510	559.002010	252.476750	351.739930	513.400820	160.318270	297.150940	568.549620	187.243770	91.226500	631.007320	72.459400	203.872360	542.364560	135.490300	109.082320	533.641420	-41.477510	200.856050	476.081020	629.331730	31.785660	616.918700	570.270810	28.783650	710.168700	484.650510	88.741870	700.013060	361.538730	38.473770	746.393740	531.451720	1162.983400	1025.490700	289.188230	1216.050300	1115.130100	661.924740	1244.890900	269.038510	640.209900	1122.705000	44.232360	
590	5.8900	678.119260	985.416630	660.180180	500.867250	1442.790000	817.235660	419.818600	1357.976600	657.519230	515.100160	1446.330700	497.794590	511.984530	1483.422600	683.527220	452.146790	933.929630	529.356990	456.160800	960.319340	801.951540	351.179960	790.635740	561.946410	377.852450	660.101870	499.053650	283.484130	649.540890	575.410950	240.123090	573.590450	556.219060	421.520720	738.751340	771.039120	522.487430	630.852420	817.354800	448.402650	543.126950	754.984920	454.171910	477.501560	739.401790	479.195830	406.855800	738.453860	573.291440	288.800780	765.920350	514.076780	184.592420	691.948180	227.624130	482.231540	558.327640	251.748200	352.678890	512.398440	159.767670	297.639220	567.464050	187.997150	91.993530	629.492430	71.899470	203.621870	541.166020	135.979630	109.620180	531.972900	-42.387400	199.309600	475.169370	629.337400	31.785060	616.929750	570.239750	28.789840	710.155210	484.617030	88.731610	700.115230	361.496460	38.463070	746.378230	531.577580	1163.262300	1025.534900	289.439300	1216.343000	1115.268900	661.598880	1244.601100	268.650700	639.411010	1122.339600	43.959880	
591	5.9000	678.354490	985.299440	659.930420	501.149350	1442.836700	816.961430	419.864810	1357.811200	657.375790	514.815120	1446.053100	497.524480	511.909910	1483.308200	683.114750	451.946040	933.943790	529.721740	456.821900	960.316220	802.313600	350.714840	791.251530	562.277040	376.562810	661.007930	498.698000	282.084440	650.226560	575.234920	237.800310	574.372070	555.561400	421.989170	738.801450	771.418820	522.885250	630.860410	817.588870	448.507260	543.075380	755.212220	454.309450	477.476840	739.728760	479.000090	406.817990	738.672360	573.489560	288.723880	766.098020	514.197450	184.609540	692.041870	226.406570	482.942500	557.651550	251.082180	353.644500	511.402950	159.560100	298.032900	566.277770	189.253980	93.022200	627.718080	71.360730	203.020190	539.798580	136.687030	109.919110	530.570130	-43.187400	196.811080	474.096860	629.332460	31.813550	616.918950	570.231930	28.769690	710.167480	484.593660	88.756920	700.166020	361.481780	38.359800	746.381530	531.672180	1163.466200	1025.500900	289.762660	1216.662600	1115.541700	661.223820	1244.291300	268.314390	638.603270	1122.058800	43.729710	
